<svg width="96" height="96" viewBox="0 0 96 96" fill="none" xmlns="http://www.w3.org/2000/svg">
  <rect width="96" height="96" fill="transparent"/>
  <path d="M48.099 20.5L73.099 20C71.099 31.5 60.099 39.5 50.099 38.5C40.099 36.5 37.599 26 48.099 20.5Z" fill="#375F9A"/>
  <path d="M45.3346 50H48.4551V58.8696C59.03 59.0435 80.3878 58.4522 81.2199 58.8696C82.26 59.3913 82.26 60.9565 81.2199 62C60.0701 61.8261 16.8856 62 15.1702 62C13.6099 62 13.6099 58.8696 15.1702 58.8696H45.3346V50Z" fill="#132238"/>
  <path d="M23.0107 75.9785V69.0469H24.8906V75.9785C24.8906 76.6393 24.7471 77.2067 24.46 77.6807C24.1729 78.1501 23.7809 78.5101 23.2842 78.7607C22.7874 79.0114 22.2269 79.1367 21.6025 79.1367C20.96 79.1367 20.3903 79.0296 19.8936 78.8154C19.3968 78.5967 19.0072 78.264 18.7246 77.8174C18.4466 77.3708 18.3076 76.8034 18.3076 76.1152H20.1943C20.1943 76.4889 20.2513 76.7897 20.3652 77.0176C20.4792 77.2454 20.641 77.4095 20.8506 77.5098C21.0648 77.61 21.3154 77.6602 21.6025 77.6602C21.8805 77.6602 22.1243 77.5964 22.334 77.4688C22.5482 77.3366 22.7145 77.1452 22.833 76.8945C22.9515 76.6439 23.0107 76.3385 23.0107 75.9785ZM34.4012 70.5576L31.5643 79H29.575L33.2937 69.0469H34.5652L34.4012 70.5576ZM36.7732 79L33.9227 70.5576L33.7518 69.0469H35.0301L38.7693 79H36.7732ZM36.6434 75.3018V76.7852H31.3045V75.3018H36.6434ZM51.4791 69.0469V79H49.5924L45.3609 72.0957V79H43.4811V69.0469H45.3609L49.6061 75.958V69.0469H51.4791ZM62.6166 69.0469H64.4965V75.6572C64.4965 76.4183 64.3324 77.0586 64.0043 77.5781C63.6762 78.0931 63.2296 78.4827 62.6645 78.7471C62.0993 79.0068 61.4568 79.1367 60.7367 79.1367C60.0076 79.1367 59.3581 79.0068 58.7885 78.7471C58.2188 78.4827 57.7722 78.0931 57.4486 77.5781C57.1251 77.0586 56.9633 76.4183 56.9633 75.6572V69.0469H58.8432V75.6572C58.8432 76.1221 58.9206 76.5026 59.0756 76.7988C59.2305 77.0905 59.4493 77.307 59.7318 77.4482C60.0144 77.5895 60.3493 77.6602 60.7367 77.6602C61.1286 77.6602 61.4636 77.5895 61.7416 77.4482C62.0242 77.307 62.2406 77.0905 62.391 76.7988C62.5414 76.5026 62.6166 76.1221 62.6166 75.6572V69.0469ZM75.176 76.416C75.176 76.2246 75.1464 76.0537 75.0871 75.9033C75.0324 75.7484 74.9299 75.6094 74.7795 75.4863C74.6337 75.3587 74.4263 75.2357 74.1574 75.1172C73.8931 74.9941 73.5513 74.8665 73.132 74.7344C72.6672 74.5885 72.2342 74.4245 71.8332 74.2422C71.4322 74.0599 71.079 73.848 70.7736 73.6064C70.4729 73.3649 70.2382 73.0869 70.0695 72.7725C69.9009 72.4535 69.8166 72.0843 69.8166 71.665C69.8166 71.2549 69.9032 70.8812 70.0764 70.5439C70.2541 70.2067 70.5048 69.9173 70.8283 69.6758C71.1519 69.4297 71.5324 69.2406 71.9699 69.1084C72.412 68.9762 72.8996 68.9102 73.4328 68.9102C74.1711 68.9102 74.8091 69.0446 75.3469 69.3135C75.8892 69.5824 76.3085 69.9469 76.6047 70.4072C76.9009 70.8675 77.049 71.3848 77.049 71.959H75.176C75.176 71.6491 75.1099 71.3757 74.9777 71.1387C74.8501 70.9017 74.6542 70.7148 74.3898 70.5781C74.1301 70.4414 73.802 70.373 73.4055 70.373C73.0227 70.373 72.7036 70.43 72.4484 70.5439C72.1978 70.6579 72.0087 70.8128 71.8811 71.0088C71.758 71.2048 71.6965 71.4235 71.6965 71.665C71.6965 71.8473 71.7398 72.0114 71.8264 72.1572C71.913 72.2985 72.0428 72.4329 72.216 72.5605C72.3892 72.6836 72.6034 72.7998 72.8586 72.9092C73.1184 73.014 73.4191 73.1188 73.7609 73.2236C74.3078 73.3877 74.7863 73.57 75.1965 73.7705C75.6112 73.971 75.9553 74.1989 76.2287 74.4541C76.5067 74.7093 76.7141 74.9964 76.8508 75.3154C76.9921 75.6344 77.0627 75.9967 77.0627 76.4023C77.0627 76.8307 76.9784 77.2135 76.8098 77.5508C76.6411 77.888 76.3996 78.1751 76.0852 78.4121C75.7707 78.6491 75.3924 78.8291 74.9504 78.9521C74.5129 79.0752 74.023 79.1367 73.4807 79.1367C72.9976 79.1367 72.5191 79.0729 72.0451 78.9453C71.5757 78.8132 71.1496 78.6172 70.7668 78.3574C70.384 78.0931 70.0786 77.7604 69.8508 77.3594C69.6229 76.9538 69.509 76.4798 69.509 75.9375H71.3957C71.3957 76.252 71.4458 76.5208 71.5461 76.7441C71.6509 76.9629 71.7967 77.1429 71.9836 77.2842C72.175 77.4209 72.3983 77.5212 72.6535 77.585C72.9087 77.6488 73.1844 77.6807 73.4807 77.6807C73.8635 77.6807 74.1779 77.6283 74.424 77.5234C74.6747 77.4141 74.8615 77.2637 74.9846 77.0723C75.1122 76.8809 75.176 76.6621 75.176 76.416Z" fill="#142135"/>
  <path d="M23.5406 20.0385C27.5406 13.5385 39.0406 7.03851 51.0406 17.5385C26.5407 24.0385 44.0407 52.5385 67.5407 34.5385C68.0407 33.5385 79.0406 44.0385 82.0406 51.0385C82.0406 51.8385 80.5406 52.0385 79.5406 51.5385C78.5406 49.5385 71.5407 39.5385 67.5407 38.0385C60.0407 51.5385 28.0407 62.0385 21.5407 28.5385L13.5406 23C12.8198 22.5 12.8198 22.0099 13.5406 21.1514L23.5406 20.0385Z" fill="#375F9A"/>
  <circle cx="33.8198" cy="20.5" r="3.5" fill="white"/>
  <circle cx="33.8198" cy="20.5" r="1.5" fill="#114B8D"/>
</svg>