<svg width="72" height="72" viewBox="0 0 72 72" fill="none" xmlns="http://www.w3.org/2000/svg">
<path d="M36.5867 19.5L61.9341 19C59.9063 30.5 48.7534 38.5 38.6145 37.5C28.4755 35.5 25.9408 25 36.5867 19.5Z" fill="#375F9A"/>
<path d="M33.7839 49H36.9478V57.8696C47.6696 58.0435 69.3242 57.4522 70.1679 57.8696C71.2225 58.3913 71.2225 59.9565 70.1679 61C48.7242 60.8261 4.93966 61 3.20036 61C1.61844 61 1.61843 57.8696 3.20035 57.8696H33.7839V49Z" fill="#132238"/>
<path d="M11.6871 19.0385C15.7427 12.5385 27.4025 6.03851 39.5692 16.5385C14.7288 23.0385 32.472 51.5385 56.2985 33.5385C56.8055 32.5385 67.9583 43.0385 71 50.0385C71 50.8385 69.4792 51.0385 68.4653 50.5385C67.4514 48.5385 60.3541 38.5385 56.2985 37.0385C48.6943 50.5385 16.2496 61.0385 9.65933 27.5385L1.54812 22C0.817321 21.5 0.817321 21.0099 1.54812 20.1514L11.6871 19.0385Z" fill="#375F9A"/>
<ellipse cx="22.1091" cy="19.5" rx="3.54863" ry="3.5" fill="white"/>
<ellipse cx="22.1091" cy="19.5" rx="1.52084" ry="1.5" fill="#114B8D"/>
</svg>
